<svg xmlns="http://www.w3.org/2000/svg" viewBox="0 0 760 520" role="img" aria-label="Материалы для творчества">
  <rect width="760" height="520" fill="#fff4e8"/>
  <circle cx="622" cy="114" r="84" fill="#ffd166"/>
  <circle cx="142" cy="412" r="96" fill="#d8f1e6"/>
  <g transform="translate(168 92)">
    <rect x="70" y="150" width="360" height="205" rx="22" fill="#ffffff" stroke="#eaded4" stroke-width="8"/>
    <rect x="112" y="196" width="86" height="118" rx="12" fill="#d64257"/>
    <rect x="218" y="176" width="60" height="138" rx="12" fill="#2f80ed"/>
    <rect x="298" y="214" width="88" height="100" rx="12" fill="#27ae60"/>
    <path d="M91 151c20-70 84-110 156-96 57 11 94 50 106 96" fill="none" stroke="#2f2f2f" stroke-width="16" stroke-linecap="round"/>
    <path d="M454 320l82-164 74 37-82 164z" fill="#f2c94c"/>
    <path d="M536 156l18-36 74 37-18 36z" fill="#d64257"/>
    <path d="M528 357l-42 34 8-53z" fill="#2f2f2f"/>
    <circle cx="120" cy="94" r="26" fill="#ffffff" stroke="#d64257" stroke-width="10"/>
    <circle cx="430" cy="70" r="35" fill="#ffffff" stroke="#27ae60" stroke-width="10"/>
  </g>
</svg>
